<?xml version="1.0" encoding="UTF-8"?>
<svg width="200" height="200" viewBox="0 0 200 200" xmlns="http://www.w3.org/2000/svg">
  <defs>
    <linearGradient id="logoGradient" x1="0%" y1="0%" x2="100%" y2="100%">
      <stop offset="0%" style="stop-color:#8B4513;stop-opacity:1" />
      <stop offset="100%" style="stop-color:#D2691E;stop-opacity:1" />
    </linearGradient>
    <pattern id="africanPattern" x="0" y="0" width="20" height="20" patternUnits="userSpaceOnUse">
      <path d="M0,10 L20,10 M10,0 L10,20" stroke="#FFC107" stroke-width="1" opacity="0.3"/>
      <path d="M5,5 L15,15 M15,5 L5,15" stroke="#FFC107" stroke-width="1" opacity="0.3"/>
    </pattern>
  </defs>
  
  <!-- Background Circle -->
  <circle cx="100" cy="100" r="90" fill="url(#logoGradient)" />
  <circle cx="100" cy="100" r="90" fill="url(#africanPattern)" />
  
  <!-- Africa Silhouette -->
  <path d="M120,50 C140,60 150,80 145,100 C140,120 130,130 115,140 C100,150 85,145 75,135 C65,125 60,110 65,95 C70,80 80,70 95,65 C110,60 120,50 120,50 Z" 
        fill="#FFC107" stroke="#8B4513" stroke-width="2" />
  
  <!-- Stylized "BT" Letters -->
  <path d="M85,80 C90,80 95,82 95,90 C95,98 90,100 85,100 L80,100 L80,110 C80,115 85,115 90,115 C95,115 100,110 100,105 L105,105 C105,115 95,120 90,120 C85,120 75,120 75,110 L75,80 L85,80 Z" 
        fill="#FFFFFF" />
  <path d="M85,85 L85,95 C88,95 90,93 90,90 C90,87 88,85 85,85 Z" 
        fill="#8B4513" />
  
  <path d="M110,80 L110,120 L115,120 L115,105 L120,105 C125,105 130,100 130,95 C130,90 125,85 120,85 L110,80 Z" 
        fill="#FFFFFF" />
  <path d="M115,85 L120,85 C122,85 125,88 125,92 C125,96 122,100 120,100 L115,100 L115,85 Z" 
        fill="#8B4513" />
  
  <!-- Decorative Elements -->
  <circle cx="70" cy="70" r="5" fill="#FFFFFF" opacity="0.7" />
  <circle cx="130" cy="70" r="5" fill="#FFFFFF" opacity="0.7" />
  <circle cx="100" cy="140" r="5" fill="#FFFFFF" opacity="0.7" />
</svg>
