<?xml version="1.0" encoding="UTF-8"?>
<svg width="400" height="400" viewBox="0 0 400 400" xmlns="http://www.w3.org/2000/svg">
  <defs>
    <pattern id="maskPattern" x="0" y="0" width="200" height="200" patternUnits="userSpaceOnUse">
      <!-- African Mask 1 -->
      <path d="M50,30 C70,10 130,10 150,30 C160,40 160,60 150,70 C140,80 130,90 120,100 C110,90 100,80 90,70 C80,60 80,40 90,30 C100,20 110,20 120,20 C130,20 140,20 150,30" 
            fill="none" stroke="#000" stroke-width="2" opacity="0.2"/>
      
      <!-- African Mask 2 -->
      <path d="M50,130 C60,120 80,120 90,130 C100,140 100,160 90,170 C80,180 60,180 50,170 C40,160 40,140 50,130 Z" 
            fill="none" stroke="#000" stroke-width="2" opacity="0.2"/>
      
      <!-- African Mask 3 -->
      <path d="M150,130 C160,120 180,120 190,130 C200,140 200,160 190,170 C180,180 160,180 150,170 C140,160 140,140 150,130 Z" 
            fill="none" stroke="#000" stroke-width="2" opacity="0.2"/>
      
      <!-- Decorative Elements -->
      <circle cx="70" cy="50" r="5" fill="none" stroke="#000" stroke-width="1" opacity="0.2"/>
      <circle cx="130" cy="50" r="5" fill="none" stroke="#000" stroke-width="1" opacity="0.2"/>
      <circle cx="70" cy="150" r="5" fill="none" stroke="#000" stroke-width="1" opacity="0.2"/>
      <circle cx="170" cy="150" r="5" fill="none" stroke="#000" stroke-width="1" opacity="0.2"/>
      
      <!-- Tribal Patterns -->
      <path d="M20,100 L40,100 M30,90 L30,110" stroke="#000" stroke-width="1" opacity="0.2"/>
      <path d="M120,40 L120,60 M110,50 L130,50" stroke="#000" stroke-width="1" opacity="0.2"/>
      <path d="M120,140 L120,160 M110,150 L130,150" stroke="#000" stroke-width="1" opacity="0.2"/>
    </pattern>
  </defs>
  
  <rect width="100%" height="100%" fill="url(#maskPattern)"/>
</svg>
